<mxfile host="65bd71144e">
    <diagram id="pvGXTjTIC-8Juuq99xQC" name="ページ1">
        <mxGraphModel dx="585" dy="768" grid="1" gridSize="10" guides="1" tooltips="1" connect="1" arrows="1" fold="1" page="1" pageScale="1" pageWidth="1169" pageHeight="827" math="0" shadow="0">
            <root>
                <mxCell id="0"/>
                <mxCell id="1" parent="0"/>
                <mxCell id="2" value="ユーザー" style="shape=umlActor;verticalLabelPosition=bottom;verticalAlign=top;html=1;" vertex="1" parent="1">
                    <mxGeometry x="20" y="90" width="30" height="60" as="geometry"/>
                </mxCell>
                <mxCell id="3" value="商品詳細&lt;div&gt;画面&lt;/div&gt;" style="shape=umlBoundary;whiteSpace=wrap;html=1;" vertex="1" parent="1">
                    <mxGeometry x="150" y="80" width="100" height="80" as="geometry"/>
                </mxCell>
                <mxCell id="4" value="カートに追加ボタンをクリックする" style="ellipse;shape=umlControl;whiteSpace=wrap;html=1;" vertex="1" parent="1">
                    <mxGeometry x="340" y="80" width="70" height="80" as="geometry"/>
                </mxCell>
                <mxCell id="5" value="商品DB" style="ellipse;shape=umlEntity;whiteSpace=wrap;html=1;" vertex="1" parent="1">
                    <mxGeometry x="545" y="80" width="80" height="80" as="geometry"/>
                </mxCell>
                <mxCell id="7" value="エラー画面" style="shape=umlBoundary;whiteSpace=wrap;html=1;" vertex="1" parent="1">
                    <mxGeometry x="150" y="350" width="100" height="80" as="geometry"/>
                </mxCell>
                <mxCell id="10" value="カートDB" style="ellipse;shape=umlEntity;whiteSpace=wrap;html=1;" vertex="1" parent="1">
                    <mxGeometry x="545" y="350" width="80" height="80" as="geometry"/>
                </mxCell>
                <mxCell id="11" value="" style="endArrow=open;endFill=1;endSize=12;html=1;entryX=-0.005;entryY=0.515;entryDx=0;entryDy=0;entryPerimeter=0;" edge="1" parent="1" target="4">
                    <mxGeometry width="160" relative="1" as="geometry">
                        <mxPoint x="250" y="120" as="sourcePoint"/>
                        <mxPoint x="330" y="120" as="targetPoint"/>
                    </mxGeometry>
                </mxCell>
                <mxCell id="12" value="" style="endArrow=open;endFill=1;endSize=12;html=1;entryX=0.073;entryY=0.383;entryDx=0;entryDy=0;entryPerimeter=0;" edge="1" parent="1" target="5">
                    <mxGeometry width="160" relative="1" as="geometry">
                        <mxPoint x="410" y="109.5" as="sourcePoint"/>
                        <mxPoint x="500" y="110.5" as="targetPoint"/>
                    </mxGeometry>
                </mxCell>
                <mxCell id="13" value="" style="endArrow=open;endFill=1;endSize=12;html=1;" edge="1" parent="1">
                    <mxGeometry width="160" relative="1" as="geometry">
                        <mxPoint x="545" y="130" as="sourcePoint"/>
                        <mxPoint x="410" y="130" as="targetPoint"/>
                    </mxGeometry>
                </mxCell>
                <mxCell id="14" value="在庫数と価格データを取得" style="text;html=1;align=center;verticalAlign=middle;resizable=0;points=[];autosize=1;strokeColor=none;fillColor=none;" vertex="1" parent="1">
                    <mxGeometry x="390" y="80" width="170" height="30" as="geometry"/>
                </mxCell>
                <mxCell id="16" value="" style="endArrow=open;endFill=1;endSize=12;html=1;exitX=0.9;exitY=0.911;exitDx=0;exitDy=0;exitPerimeter=0;entryX=0.313;entryY=0.092;entryDx=0;entryDy=0;entryPerimeter=0;" edge="1" parent="1" source="4" target="10">
                    <mxGeometry width="160" relative="1" as="geometry">
                        <mxPoint x="260" y="390" as="sourcePoint"/>
                        <mxPoint x="420" y="390" as="targetPoint"/>
                    </mxGeometry>
                </mxCell>
                <mxCell id="17" value="カートに商品情報を&lt;div&gt;追加する&lt;/div&gt;" style="text;html=1;align=center;verticalAlign=middle;resizable=0;points=[];autosize=1;strokeColor=none;fillColor=none;" vertex="1" parent="1">
                    <mxGeometry x="455" y="210" width="130" height="40" as="geometry"/>
                </mxCell>
                <mxCell id="18" value="新規の場合：新しくカートを作成" style="text;html=1;align=center;verticalAlign=middle;resizable=0;points=[];autosize=1;strokeColor=none;fillColor=none;fontColor=#FF3333;" vertex="1" parent="1">
                    <mxGeometry x="520" y="250" width="200" height="30" as="geometry"/>
                </mxCell>
                <mxCell id="19" value="既存の場合：カート情報を更新" style="text;html=1;align=center;verticalAlign=middle;resizable=0;points=[];autosize=1;strokeColor=none;fillColor=none;fontColor=#FF3333;" vertex="1" parent="1">
                    <mxGeometry x="520" y="270" width="190" height="30" as="geometry"/>
                </mxCell>
                <mxCell id="20" value="カート&lt;span style=&quot;color: rgb(63, 63, 63); background-color: transparent;&quot;&gt;一覧&lt;/span&gt;&lt;div&gt;&lt;div&gt;画面&lt;/div&gt;&lt;/div&gt;" style="shape=umlBoundary;whiteSpace=wrap;html=1;" vertex="1" parent="1">
                    <mxGeometry x="150" y="630" width="100" height="80" as="geometry"/>
                </mxCell>
                <mxCell id="21" value="" style="endArrow=open;endFill=1;endSize=12;html=1;exitX=0.037;exitY=0.755;exitDx=0;exitDy=0;exitPerimeter=0;entryX=0.879;entryY=0.176;entryDx=0;entryDy=0;entryPerimeter=0;" edge="1" parent="1" source="5" target="7">
                    <mxGeometry width="160" relative="1" as="geometry">
                        <mxPoint x="350" y="370" as="sourcePoint"/>
                        <mxPoint x="510" y="370" as="targetPoint"/>
                    </mxGeometry>
                </mxCell>
                <mxCell id="22" value="在庫数が減少し、&lt;div&gt;ユーザーの購入希望数を満たす在庫数が&lt;/div&gt;&lt;div&gt;確保できない場合&lt;/div&gt;" style="text;html=1;align=center;verticalAlign=middle;resizable=0;points=[];autosize=1;" vertex="1" parent="1">
                    <mxGeometry x="140" y="250" width="240" height="60" as="geometry"/>
                </mxCell>
                <mxCell id="23" value="カート&lt;div&gt;一&lt;span style=&quot;color: rgb(63, 63, 63); background-color: transparent;&quot;&gt;覧画面を表示する&lt;/span&gt;&lt;/div&gt;" style="ellipse;whiteSpace=wrap;html=1;" vertex="1" parent="1">
                    <mxGeometry x="360" y="500" width="80" height="80" as="geometry"/>
                </mxCell>
                <mxCell id="24" value="" style="endArrow=open;endFill=1;endSize=12;html=1;exitX=0.073;exitY=0.752;exitDx=0;exitDy=0;exitPerimeter=0;" edge="1" parent="1" source="10" target="23">
                    <mxGeometry width="160" relative="1" as="geometry">
                        <mxPoint x="330" y="370" as="sourcePoint"/>
                        <mxPoint x="230" y="520" as="targetPoint"/>
                    </mxGeometry>
                </mxCell>
                <mxCell id="25" value="" style="endArrow=open;endFill=1;endSize=12;html=1;exitX=0;exitY=1;exitDx=0;exitDy=0;" edge="1" parent="1" source="23">
                    <mxGeometry width="160" relative="1" as="geometry">
                        <mxPoint x="371" y="560" as="sourcePoint"/>
                        <mxPoint x="250" y="664" as="targetPoint"/>
                    </mxGeometry>
                </mxCell>
                <mxCell id="26" value="" style="endArrow=open;endFill=1;endSize=12;html=1;entryX=-0.005;entryY=0.515;entryDx=0;entryDy=0;entryPerimeter=0;" edge="1" parent="1">
                    <mxGeometry width="160" relative="1" as="geometry">
                        <mxPoint x="50" y="119.5" as="sourcePoint"/>
                        <mxPoint x="140" y="120.5" as="targetPoint"/>
                    </mxGeometry>
                </mxCell>
            </root>
        </mxGraphModel>
    </diagram>
</mxfile>